<svg xmlns="http://www.w3.org/2000/svg" viewBox="0 0 230 260"><defs><linearGradient id="fur" x2=".6" y2="1"><stop stop-color="#fff191"/><stop offset="1" stop-color="#ffd44e"/></linearGradient></defs><g stroke="#4b3848" stroke-width="3.8" stroke-linejoin="round" stroke-linecap="round"><path d="M161 185 L188 164 L178 138 L215 116 L207 159 L194 171 L204 191 L165 215Z" fill="#ffda53"/><ellipse cx="110" cy="203" rx="47" ry="41" fill="url(#fur)"/><ellipse cx="78" cy="242" rx="25" ry="11" fill="#ffdc64"/><ellipse cx="145" cy="242" rx="25" ry="11" fill="#ffdc64"/><path d="M79 180 Q37 167 41 187 Q42 200 76 208" fill="#ffdf64"/><path d="M144 181 Q177 153 180 176 Q181 190 148 208" fill="#ffdf64"/><g><path d="M65 97 Q39 54 52 8 Q85 31 88 87Z" fill="#ffda53"/><path d="M52 8 Q73 24 79 44 L54 49 Q47 25 52 8Z" fill="#3c3549"/><path d="M137 88 Q149 39 189 16 Q195 58 160 102Z" fill="#ffda53"/><path d="M189 16 Q193 36 182 58 L160 43 Q173 24 189 16Z" fill="#3c3549"/><path d="M49 113 Q48 70 108 73 Q169 70 175 115 Q190 166 114 169 Q36 167 49 113Z" fill="url(#fur)"/><ellipse cx="66" cy="140" rx="14" ry="11" fill="#ff887d" stroke="none"/><ellipse cx="158" cy="140" rx="14" ry="11" fill="#ff887d" stroke="none"/><g fill="#352d3b" stroke="none"><ellipse cx="84" cy="121" rx="8" ry="11"/><ellipse cx="139" cy="121" rx="8" ry="11"/><circle cx="86" cy="118" r="3" fill="white"/><circle cx="141" cy="118" r="3" fill="white"/></g><path d="M107 132 L113 132 L110 135Z" fill="#352d3b" stroke-width="2"/><path d="M96 144 Q110 139 126 143 Q113 166 101 151Z" fill="#a54d65" stroke-width="2.5"/><path d="M106 153 Q113 149 119 151" fill="none" stroke="#ffb1b9" stroke-width="4"/><path d="M60 97 Q67 85 81 85" fill="none" stroke="#fff5b9" stroke-width="5"/></g><path d="M99 77 L113 38 L137 76Z" fill="#f38aab" stroke-width="2.5"/><path d="M106 60 L128 60 M102 71 L134 71" stroke="#fff6ef" stroke-width="3"/><circle cx="113" cy="37" r="6" fill="#fff9e8" stroke-width="2"/></g></svg>